# xmcd
#
# Track frame offsets: 
#        150
#        15368
#        32943
#        44273
#        58107
#        72185
#        83158
#        95369
#        109196
#        118821
#        136156
#        146648
#        163798
#        177593
#        191002
#        208078
#        217689
#        229377
#        256962
#
# Disc length: 3620 seconds
#
# Revision: 0
# Processed by: cddbd v1.5.2PL0 Copyright (c) Steve Scherf et al.
# Submitted via: ExactAudioCopyFreeDBPlugin 1.0
#
DISCID=140e2213
DTITLE=Merle Haggard - Kern River and Amber Waves of Grain
DYEAR=1985
DGENRE=Country
TTITLE0=Kern River
TTITLE1=Old Flames Can't Hold a Candle to You
TTITLE2=There I've Said It Again
TTITLE3=You Don't Love Me Anymore
TTITLE4=Natural High
TTITLE5=Big Butter and Egg Man
TTITLE6=Ridin' High
TTITLE7=There's Somebody Else On Your Mind
TTITLE8=I Wonder Where I'll Find You At Tonight
TTITLE9=There Won't Be Another Now
TTITLE10=The Old Watermill
TTITLE11=Amber Waves of Grain
TTITLE12=Medley Tulare Dust and Mama Tried and The Farmer's Daughter
TTITLE13=The Farmer's Daughter
TTITLE14=Medley The Okie From Muskogee's Comin' Home
TTITLE15=Gone With the Wind
TTITLE16=I Wish Things Were Simple Again
TTITLE17=Medley: Working Man's Blues and Always Late With Your Kisses
TTITLE18=American Waltz
EXTD=
EXTT0=
EXTT1=
EXTT2=
EXTT3=
EXTT4=
EXTT5=
EXTT6=
EXTT7=
EXTT8=
EXTT9=
EXTT10=
EXTT11=
EXTT12=
EXTT13=
EXTT14=
EXTT15=
EXTT16=
EXTT17=
EXTT18=
PLAYORDER=
